<svg xmlns="http://www.w3.org/2000/svg" xmlns:xlink="http://www.w3.org/1999/xlink" width="298.603" height="300" viewBox="0 0 298.603 300"><defs><style>.a{fill:url(#a);}.b{fill:url(#c);}.c{fill:url(#d);}.d{fill:url(#e);}.e{opacity:0.4;fill:url(#f);}.f{fill:url(#g);}.g{clip-path:url(#h);}.h{fill:#4d4d4d;}.i{fill:url(#i);}.j{fill:url(#j);}.k{fill:url(#k);}.l{fill:url(#l);}.m{clip-path:url(#m);}.n{fill:#999;}.o{clip-path:url(#n);}.p{fill:#949494;}.q{fill:#8f8f8f;}.r{fill:#8a8a8a;}.s{fill:#858585;}.t{clip-path:url(#o);}.u{fill:#434343;}.v{clip-path:url(#p);}.w{fill:#454545;}.x{fill:#484848;}.y{fill:#4a4a4a;}.z{fill:url(#q);}.aa{fill:url(#r);}.ab{fill:url(#s);}</style><linearGradient id="a" x1="0.513" y1="-0.132" x2="0.515" y2="0.457" gradientUnits="objectBoundingBox"><stop offset="0" stop-color="#f0eff2"/><stop offset="0.01" stop-color="#e2e4ed"/><stop offset="1" stop-color="#e4e4e4" stop-opacity="0"/></linearGradient><linearGradient id="c" x1="0.513" y1="-0.132" x2="0.5" y2="0.669" xlink:href="#a"/><linearGradient id="d" x1="235.687" y1="431.328" x2="406.37" y2="431.328" gradientUnits="objectBoundingBox"><stop offset="0" stop-color="#ebebeb"/><stop offset="1" stop-color="#c5c5c7"/></linearGradient><linearGradient id="e" x1="-1118.54" y1="2440.73" x2="-1190.13" y2="2430.51" xlink:href="#d"/><linearGradient id="f" x1="973.345" y1="-45.676" x2="948.81" y2="-61.307" xlink:href="#d"/><linearGradient id="g" x1="720.002" y1="763.675" x2="720.002" y2="792.518" xlink:href="#d"/><clipPath id="h"><path d="M456.1,473.4l5.492.145,5.3.723,2.553.578,6.889,2.12-5.107-1.3-2.6-.434-5.4-.434h-2.794Z" transform="translate(-456.1 -473.4)"/></clipPath><linearGradient id="i" x1="535.523" y1="700.497" x2="613.407" y2="700.497" gradientUnits="objectBoundingBox"><stop offset="0" stop-color="#a5a5a5"/><stop offset="1" stop-color="#bfbfbf"/></linearGradient><linearGradient id="j" x1="0.428" y1="-0.082" x2="0.544" y2="0.867" gradientUnits="objectBoundingBox"><stop offset="0" stop-color="#f0eff2"/><stop offset="1" stop-color="#c6c5cc"/></linearGradient><linearGradient id="k" x1="499.462" y1="654.028" x2="542.085" y2="654.028" gradientUnits="objectBoundingBox"><stop offset="0" stop-color="#a5a5a5"/><stop offset="1" stop-color="#d1d1d1"/></linearGradient><linearGradient id="l" x1="503.333" y1="645.011" x2="560.729" y2="645.011" xlink:href="#d"/><clipPath id="m"><path d="M405.636,653.9l-4.336-1.4,5.059,1.3,2.65.433,5.4.434H417.2l4.336,1.4-5.492-.145-5.3-.723Z" transform="translate(-401.3 -652.5)"/></clipPath><clipPath id="n"><path d="M449.665,449l7.949,2.7,3.421,1.59,3.276,1.831,3.132,2.12,2.939,2.361,2.746,2.553,2.553,2.746,2.361,3.035,2.072,3.18,1.879,3.324,1.638,3.517,1.349,3.71.915,3.035.674,3.083.53,3.228.337,3.276.1,3.372-.1,3.421-.289,3.324-.482,3.228-.674,3.18-.915,3.131-1.349,3.806-1.59,3.661-1.879,3.469-2.072,3.372-2.361,3.18-2.553,2.939-2.746,2.746-2.987,2.6-3.132,2.313-3.276,2.072-3.421,1.783-3.613,1.542-2.987,1.06-2.987.819-3.132.626-3.18.434-3.228.241-4.384-1.4,3.276-.241,3.18-.434,3.083-.626,3.035-.819,2.987-1.06,3.565-1.542L456.8,542.7l3.276-2.072,3.132-2.313,2.939-2.553,2.794-2.794,2.505-2.939,2.361-3.18,2.12-3.372,1.879-3.469,1.59-3.662,1.349-3.806.867-3.132.675-3.18.53-3.228.289-3.324.1-3.421-.145-3.372-.289-3.276-.53-3.18-.723-3.132-.867-2.987-1.4-3.758-1.59-3.517-1.879-3.324-2.12-3.18L471.3,463.55l-2.505-2.794-2.746-2.553-2.987-2.361-3.083-2.12-3.276-1.831-3.421-1.59Z" transform="translate(-434.2 -449)"/></clipPath><clipPath id="o"><path d="M384.717,643.431l-2.794-1.012-5.348-2.505-2.553-1.493L369.3,635l4.336,1.4,4.77,3.42,2.505,1.494,5.348,2.505,2.794,1.012Z" transform="translate(-369.3 -635)"/></clipPath><clipPath id="p"><path d="M331.7,497.347l.1-3.421.289-3.324.482-3.228.723-3.18.867-3.132,1.349-3.806,1.59-3.661,1.879-3.469,2.12-3.324,2.313-3.18,2.553-2.987,2.746-2.746,2.987-2.553,3.132-2.361,3.276-2.024,3.469-1.831,3.565-1.542,2.987-1.06,2.987-.819,3.132-.626,3.18-.434,3.276-.241,4.336,1.4-3.276.241-3.18.434-3.083.626-3.035.819-2.939,1.06-3.613,1.542-3.469,1.783-3.276,2.072-3.132,2.361-2.939,2.553-2.746,2.746-2.553,2.939-2.361,3.228-2.12,3.324-1.831,3.469-1.638,3.661-1.349,3.806-.867,3.132-.675,3.18L336.47,492l-.337,3.324-.1,3.421.193,3.951.434,3.854.723,3.71.964,3.613,1.2,3.517L341,520.761l1.686,3.228,1.879,3.083,2.12,2.891L349,532.709l2.505,2.553,2.65,2.361-4.336-1.4-2.7-2.361-2.457-2.553-2.313-2.746-2.12-2.891-1.879-3.083-1.686-3.228-1.445-3.372-1.253-3.517L333,508.861l-.674-3.71-.434-3.806Z" transform="translate(-331.7 -444.4)"/></clipPath><radialGradient id="q" cx="0.5" cy="0.5" r="1.198" gradientTransform="translate(0 0)" xlink:href="#j"/><linearGradient id="r" x1="0.188" y1="0.082" x2="0.544" y2="0.867" xlink:href="#j"/><linearGradient id="s" x1="0.295" y1="0.635" x2="0.544" y2="0.867" xlink:href="#j"/></defs><g transform="translate(-0.001 0.001)"><path class="a" d="M503.864,791.406l-.1-.771-.482-.915-.819-1.108-1.445-1.349-1.927-1.494-2.65-1.686-3.517-1.927-7.757-3.565-4.914-1.927-10.5-3.517-6.167-1.783-12.815-3.132-7.13-1.4-7.178-1.253-7.564-1.012-7.9-.915-7.949-.626-8.238-.386-8.479-.144-8.479.144-8.238.386-7.949.626-7.9.915-7.564,1.012-7.178,1.253-7.13,1.4-12.815,3.132-6.167,1.783-10.5,3.517-4.914,1.927-7.757,3.565-3.517,1.927-2.65,1.686-1.927,1.494-1.445,1.349-.819,1.108-.434.915-.145.771Z" transform="translate(-244.669 -491.408)"/><g transform="translate(17.007 -0.001)"><path class="a" d="M356.6,262.386l-.145-2.313-.337-2.216-.53-2.072-.723-2.072-.964-1.927-1.06-1.831-1.253-1.734-1.445-1.59-1.59-1.445-1.686-1.3-1.783-1.108-1.975-.964-1.975-.771-2.12-.578-2.168-.385-2.312-.145.337-2.361.144-2.409-.144-2.409-.337-2.312-.578-2.216-.771-2.168-1.012-2.023-1.156-1.927-1.349-1.783-1.493-1.686-1.686-1.493-1.783-1.349-1.927-1.156-2.072-1.012-2.12-.771-2.216-.578-2.313-.337-2.409-.145-2.216.1-4.1.771-1.927.626-3.661,1.734-3.276,2.361-1.927,1.879-1.734,2.023-1.445,2.264-1.927-.723-1.975-.53-2.072-.337-2.168-.1-2.168.1-2.023.337-1.975.53-1.879.723-1.831.867-1.686,1.06-1.542,1.2-1.494,1.4-1.3,1.493-1.156,1.638-.964,1.686-.867,1.879-4-.289-4.529.385-4.288,1.06-2.7,1.06-2.553,1.3-2.361,1.59-2.264,1.783-1.975,2.023-1.831,2.216-1.542,2.409-1.349,2.553-1.06,2.7-1.06,4.24-.241,2.264-.1,2.313.1,2.313.241,2.216,1.06,4.288,1.06,2.7,1.349,2.553,1.542,2.409,1.831,2.216,1.975,2.023,2.264,1.783,2.361,1.59,2.553,1.3,2.7,1.06,2.12.626,4.384.723,2.313.1,4.625-.385,4.336-1.108,2.746-1.06,2.6-1.4,2.409-1.59H331.7l2.409.145,2.409-.145,4.143-.867,1.927-.674,3.613-1.831,3.18-2.457,2.7-2.987,2.12-3.421,1.493-3.854.482-1.975.289-2.12Z" transform="translate(-232.5 -206.019)"/><path class="b" d="M592.6,265.514l-.1-2.505-.289-2.457-.482-2.361-1.542-4.577-1.012-2.12-2.457-4-1.445-1.879-3.324-3.276-3.806-2.794-2.023-1.156-4.384-1.879-2.313-.626-2.361-.482-2.457-.337-2.553-.1-2.168.1-4.143.578-.674-3.035-.819-2.939-1.06-2.842-1.2-2.746-1.445-2.65-1.59-2.505-1.734-2.409-1.879-2.313-2.072-2.12-2.216-1.975-2.312-1.879-2.457-1.686-2.553-1.494-2.7-1.349-2.794-1.156-2.891-.964-2.939-.771-3.035-.53-3.132-.337-3.18-.145-5.781.385-5.444,1.06-5.251,1.783-4.866,2.361-3.083,1.927-2.842,2.168-2.7,2.361-2.505,2.6-2.264,2.794-2.023,2.939-4.529-.289-3.132.145-3.035.434-2.939.723-2.842,1.012-2.65,1.2-2.553,1.493-2.409,1.686L450,228.465l-2.072,2.12L446.1,232.85l-1.638,2.457-1.4,2.6-3.18-.145-2.7.1-2.553.337-2.505.482-2.409.723-2.409.867-2.216,1.06-2.168,1.253-2.072,1.4-3.758,3.18-3.18,3.758-1.4,2.072-1.253,2.168-1.06,2.216-.867,2.409-.723,2.409-.482,2.505-.337,2.553-.1,2.7.1,2.65.337,2.6.482,2.505.723,2.409,1.927,4.625,1.253,2.168,2.939,4,3.469,3.469,1.927,1.542,2.072,1.4,2.168,1.2,2.216,1.06,2.409.915,2.409.674,2.505.53,2.553.289,2.7.145,2.7-.145,2.553-.289,2.505-.53,2.457-.723,2.361-.867,2.264-1.108,2.168-1.2,2.072-1.4H558.3l3.758.241,3.9-.241,2.794-.53,2.7-.723,2.553-.964,2.457-1.156,2.361-1.4,2.168-1.59,2.023-1.734,1.927-1.975,1.686-2.072,1.493-2.264,1.349-2.361,1.108-2.553.867-2.6.626-2.7.385-2.794Z" transform="translate(-323.293 -199.8)"/></g><g transform="translate(18.549 75.878)"><path class="c" d="M236.664,428.7l-.674-.289-.289-.626.048-.385.482-.53,2.6-.337,2.216-.434,2.264-.771L247.7,423.3l5.155-3.276,2.794-2.12,4.77-4.143,4.432-4.529,2.313-3.372-1.734-.048-1.445-.241-2.891-.964-1.349-.723-2.409-1.734-.964-1.108-.771-1.156-.53-1.253-.193-1.06.145-2.216.867-2.023.674-1.012,2.264-2.312,1.686-.867,1.445-.482,1.4-.241H264.7l1.3.241,1.2.482,1.108.723,1.012.964,1.3,2.12.482,1.3.434,2.794-.193,3.18-1.012,3.517,2.505-.434,2.457-.626,2.409-.819,2.361-1.012,3.035-1.638,2.939-1.831,2.842-2.12,2.7-2.312,5.107-5.059,3.469-4.047,3.132-4.143,5.4-8,3.951-6.986,3.421-6.889.53-.53h.771l.289.241.289.675-1.108,2.553-4.77,9.009-5.3,8.431-3.228,4.529-2.891,3.565-2.842,3.228-2.794,2.891-2.746,2.553-2.746,2.264-2.7,1.975-3.035,1.831-2.939,1.542-2.891,1.2-2.842.964-2.842.626-2.842.385-1.879,3.083-1.253,1.638-4.818,4.914-4.914,4.288-2.891,2.168-3.18,2.072-2.216,1.253-4.529,2.072-2.361.723-2.361.482Zm29-24.811h2.505l1.108-3.228.337-2.987-.289-2.553-.867-2.168-.578-.867-.771-.723-.819-.53-.867-.337-1.012-.145-2.072.193-2.312,1.012-1.783,1.783-.771,1.06-.482,1.156-.193,1.638.145.915.915,1.734,1.638,1.59,2.216,1.3,1.879.723Z" transform="translate(-235.7 -357.3)"/></g><path class="d" d="M198.5,597.167l6.311-2.794,4.432-2.6,2.168-1.638,1.975-1.831,1.2-1.4,1.012-1.445.819-1.59.578-1.686.337-1.783.1-1.975-.482-2.987-1.4-3.517,1.734-2.313,1.638-1.734,1.783-1.349-.723-.578-.337-.048-1.012.53-1.831,1.445-2.505,2.939-2.409-.1-1.783.193-1.831.337-2.072.675-2.7,1.445-1.349,1.06-1.2,1.253-1.108,1.494-.964,1.879-.578,1.4-.867,3.613-.241,2.264V590.9l.289,2.794.482,3.18.193.289Z" transform="translate(-197.199 -389.524)"/><g transform="translate(276.153 224.36)"><path class="e" d="M771.171,702.307l-.626-.482-.145-.337.193-.723,5.829-3.9,2.216-1.831,2.12-1.975,3.276-3.758,2.553-3.854,2.168-4.529.819-2.361.578-2.312.626-3.758.145-2.553-.193-3.758.434-.578.723-.1.578.385.144.385.193,1.782.048,1.831-.385,4.577-1.012,4.529-.867,2.553-2.264,4.721-2.65,4.1-1.59,1.975-4.1,4.1-2.361,1.927-2.7,1.927-3.083,1.927Z" transform="translate(-770.4 -665.5)"/></g><path class="f" d="M717.981,763.9l-.771,1.638-.434.626-1.3,1.06-.819.241-.964-.193-3.228-2.553-1.879-.867L706.8,763.8l-.915.289-1.06.53-7.8,6.215-1.445.723-1.831.337-.048.241.144.434.578.723,1.06,1.012,1.349.915,3.131,1.493,3.083.771,1.638.144,3.661-.241,1.734-.626,1.4-.674,1.156-.771,1.734-1.783.819-1.879.1-2.12.289-.434,2.361-2.264.964-1.253.144-.385-.193-.674Z" transform="translate(-454.499 -492.081)"/><g transform="translate(124.732 131.812)"><g class="g"><path class="h" d="M460.484,474.8l-4.384-1.4h2.794l5.348.434,5.251,1.012,6.841,2.168-5.059-1.349-2.65-.434-5.4-.434h-2.746" transform="translate(-456.1 -473.4)"/></g></g><g transform="translate(60.078 112.975)"><path class="i" d="M571.3,697.629,541.185,667.47l-.915-1.349-.241-.771-.193-1.156.145-1.2.674-1.542.53-.674,8.335-8.913,1.06-.674,1.156-.289h1.2l.723.145L548.6,649.5l-1.831.145-1.638.819-8.865,9.587-.626,1.542-.145,1.2.145,1.2.289.723.915,1.349,30.063,30.159.867.674.867.385,4.384,1.4-.915-.434Z" transform="translate(-432.593 -545.822)"/><g transform="translate(107.243 105.026)"><path class="j" d="M556.882,652.3l1.686.289,1.493.964,30.111,30.159.915,1.349.289.771.144,1.2-.144,1.2-.626,1.493-8.383,9.105-.674.626-1.638.771-1.734.048-.867-.241-.771-.385-.723-.578-30.111-30.159-.915-1.349-.241-.723-.193-1.2.145-1.2.674-1.542.53-.674,7.8-8.431,1.493-1.108Z" transform="translate(-544.5 -652.3)"/></g><g transform="translate(85.563 96.066)"><path class="k" d="M520.024,653.308l-1.445-.482L499.5,633.7l1.445.482Z" transform="translate(-499.5 -633.7)"/></g><g transform="translate(87.394 87.394)"><path class="l" d="M510.43,615.7l1.686.289,1.542.963,17.3,17.3-8.961,9.732-17.344-17.3-.915-1.349-.241-.771-.193-1.2.145-1.2.674-1.494,3.806-4.1.771-.482Z" transform="translate(-503.3 -615.7)"/></g><g transform="translate(38.253 105.123)"><g class="m"><path class="n" d="M405.636,653.9l-4.336-1.4,5.059,1.3,2.65.433,5.4.434H417.2l4.336,1.4-5.492-.145-5.3-.723-5.107-1.3" transform="translate(-401.3 -652.5)"/></g></g><g transform="translate(54.103 7.082)"><g class="o"><path class="n" d="M438.584,657.983l-4.384-1.4,4.77-.385,4.336,1.4-4.721.385" transform="translate(-434.2 -556.377)"/><path class="p" d="M448.436,654.332l-4.336-1.4,5.878-1.2,5.637-1.831,4.336,1.4-5.589,1.831-5.926,1.2" transform="translate(-439.33 -553.112)"/><path class="q" d="M472.336,645.959l-4.336-1.4,3.228-1.445,3.083-1.638L477.3,639.6l4.384,1.4-2.987,1.879-3.132,1.638-3.228,1.445" transform="translate(-451.716 -547.774)"/><path class="r" d="M491.684,632.861l-4.384-1.4,3.18-2.313,2.939-2.505,2.794-2.746,4.336,1.4-2.794,2.746-2.939,2.505-3.132,2.312" transform="translate(-461.718 -539.638)"/><path class="s" d="M489.666,534.659l-4.336-1.4,2.168-2.505,2.023-2.6,1.831-2.7,1.734-2.891,1.542-2.987,1.349-3.035,1.156-3.18.964-3.276.771-3.372.53-3.372.337-3.469.1-3.565-.145-3.421-.289-3.276-.53-3.18-.723-3.132-.867-2.987-1.4-3.758-1.59-3.517-1.879-3.324-2.12-3.18-2.361-2.987-2.553-2.794-2.7-2.553-2.987-2.361-3.083-2.12-3.276-1.831-3.421-1.59L466.3,449l7.949,2.7,3.421,1.59,3.276,1.831,3.132,2.12,2.939,2.361,2.746,2.553,2.553,2.794,2.361,2.987,2.072,3.18,1.879,3.324,1.638,3.517,1.349,3.758.915,2.987.674,3.132.53,3.18.337,3.276.1,3.372-.1,3.613-.337,3.469-.53,3.372-.771,3.324-.963,3.324-1.156,3.18-1.349,3.035-1.542,2.987-1.686,2.891-1.879,2.7-2.023,2.6-2.168,2.505" transform="translate(-450.835 -449)"/></g></g><g transform="translate(22.836 96.692)"><g class="t"><path class="u" d="M369.567,563.259l-7.949-2.746-3.421-1.542-3.276-1.879-3.083-2.12-2.987-2.312-2.746-2.6-2.505-2.746-2.361-3.035-2.12-3.18-1.879-3.324-1.59-3.517-1.4-3.71-.867-3.035-.723-3.083-.53-3.228-.289-3.276-.145-3.372.1-3.565.337-3.517.53-3.372.771-3.324.964-3.276,1.156-3.18,1.349-3.083,1.542-2.987,1.734-2.842,1.831-2.746,2.023-2.6,2.216-2.457,4.336,1.4-2.168,2.457-2.023,2.6-1.879,2.746-1.734,2.842-1.542,2.987-1.3,3.083-1.156,3.132-1.012,3.324-.723,3.324-.578,3.372-.289,3.517-.145,3.565.145,3.372.337,3.276.482,3.228.723,3.083.867,3.035,1.4,3.71,1.638,3.517,1.831,3.324,2.12,3.18,2.361,3.035,2.553,2.746,2.746,2.6,2.939,2.313,3.132,2.12,3.228,1.879,3.421,1.542,3.613,1.349" transform="translate(-349.815 -553.431)"/></g></g><g transform="translate(4.721 4.866)"><g class="v"><path class="u" d="M369.567,563.259l-7.949-2.746-3.421-1.542-3.276-1.879-3.083-2.12-2.987-2.312-2.746-2.6-2.505-2.746-2.361-3.035-2.12-3.18-1.879-3.324-1.59-3.517-1.4-3.71-.867-3.035-.723-3.083-.53-3.228-.289-3.276-.145-3.372.1-3.565.337-3.517.53-3.372.771-3.324.964-3.276,1.156-3.18,1.349-3.083,1.542-2.987,1.734-2.842,1.831-2.746,2.023-2.6,2.216-2.457,4.336,1.4-2.168,2.457-2.023,2.6-1.879,2.746-1.734,2.842-1.542,2.987-1.3,3.083-1.156,3.132-1.012,3.324-.723,3.324-.578,3.372-.289,3.517-.145,3.565.145,3.372.337,3.276.482,3.228.723,3.083.867,3.035,1.4,3.71,1.638,3.517,1.831,3.324,2.12,3.18,2.361,3.035,2.553,2.746,2.746,2.6,2.939,2.313,3.132,2.12,3.228,1.879,3.421,1.542,3.613,1.349" transform="translate(-331.7 -461.605)"/><path class="w" d="M366.184,470.861l-4.384-1.4,2.794-2.746,2.939-2.553,3.18-2.264,4.336,1.4-3.132,2.264-2.987,2.505-2.746,2.794" transform="translate(-347.299 -453.469)"/><path class="x" d="M384.636,457.959l-4.336-1.4,2.987-1.879,3.083-1.638L389.6,451.6l4.336,1.4-3.228,1.4-3.083,1.686-2.987,1.879" transform="translate(-356.886 -448.131)"/><path class="y" d="M403.936,449.732l-4.336-1.4,5.637-1.879,5.878-1.156,4.336,1.4-5.878,1.156-5.637,1.879" transform="translate(-366.888 -444.866)"/><path class="h" d="M427.836,446.231l-4.336-1.4,2.361-.289,2.409-.145,4.336,1.4-4.77.434" transform="translate(-379.273 -444.4)"/></g></g><g transform="translate(9.057 6.263)"><path class="z" d="M389.7,447.3h3.276l3.18.241,3.083.385,3.035.626,2.939.819,2.939,1.012,2.794,1.2,2.7,1.349,2.6,1.542,2.505,1.686,2.987,2.361,2.794,2.553,2.553,2.794,2.361,3.035,2.168,3.18,1.879,3.372,1.638,3.517,1.4,3.758.867,3.035.723,3.083.53,3.228.337,3.324.1,3.372-.1,3.421-.289,3.324-.482,3.228-.674,3.18-.915,3.131-1.349,3.806-1.59,3.661L431.8,524l-2.072,3.372-2.361,3.18-2.553,2.939-2.746,2.794-2.987,2.553-3.132,2.313-3.276,2.072L409.256,545l-3.613,1.542-2.987,1.06-2.987.819-3.132.626-3.18.434-3.228.241h-3.276l-3.18-.241-3.132-.385-3.035-.626-2.939-.819-2.891-1.012-2.842-1.2-2.7-1.349-2.6-1.542-2.505-1.686-2.987-2.361-2.746-2.553-2.553-2.794-2.409-3.035-2.12-3.18-1.879-3.372-1.638-3.517-1.4-3.758-.915-3.035-.674-3.083-.53-3.228-.337-3.276-.145-3.421.1-3.421.337-3.324.482-3.228.674-3.18.867-3.132,1.349-3.806,1.638-3.662,1.831-3.469,2.12-3.324,2.361-3.228,2.553-2.939,2.746-2.746,2.939-2.553,3.131-2.361L367.1,453.8l3.469-1.783,3.613-1.542,2.939-1.06,3.035-.819,3.083-.626,3.18-.434Z" transform="translate(-340.7 -447.3)"/></g><path class="aa" d="M392.962,436.661l-5.54-1.445-5.829-.819-6.022-.1-4.047.289-5.781.964-4.914,1.4-4.673,1.783-5.01,2.505-4.77,3.035-4,3.132-3.661,3.421L335,454.968l-3.228,4.384-2.794,4.673-2.361,4.914-1.975,5.155-1.445,5.4-.915,5.589-.385,5.733.1,5.155.385,3.613.53,3.469.771,3.421,1.012,3.372,1.156,3.228L327.2,516.2l1.542,2.987,1.686,2.939,1.879,2.746,2.023,2.65,2.216,2.505,2.313,2.361,2.457,2.168,2.6,2.072,2.7,1.879,2.842,1.686,2.939,1.493,3.035,1.3,3.18,1.156,4.336,1.4-3.132-1.156-3.035-1.3-2.939-1.493L351,539.856l-2.746-1.831-2.553-2.072-2.505-2.168-2.313-2.361-2.168-2.505-2.023-2.65-1.879-2.746-1.734-2.939-1.542-2.987-1.349-3.131-1.156-3.228-.964-3.372-.771-3.421-.578-3.469-.337-3.613-.145-3.662.145-4.384.434-4.24.771-4.191,1.445-5.4,1.927-5.155L332.981,466l2.409-4.143,3.132-4.432,3.469-4.1,3.613-3.565,3.9-3.18,4.77-3.228,4.914-2.65,4.529-1.879,4.818-1.493,4.529-.964,3.613-.482,3.228-.193,6.022.1,5.781.819,5.589,1.445Z" transform="translate(-321.9 -434.3)"/><g transform="translate(4.384 1.349)"><path class="ab" d="M384.621,437.1l3.758.048,3.613.241,3.517.482,3.469.771,3.372.963,3.276,1.2,3.18,1.4,3.035,1.638,2.939,1.831,2.842,2.023,2.65,2.168,2.553,2.361,2.361,2.553,2.216,2.7,2.023,2.842,1.879,2.987,1.638,3.132,1.493,3.228,1.253,3.324,1.108,3.517.819,3.565.626,3.613.385,3.758.145,3.9-.1,3.854-.385,3.806-.578,3.71-.819,3.613-1.012,3.565-1.253,3.421-1.445,3.372-1.638,3.228-1.879,3.132-1.975,2.987-2.216,2.842-2.361,2.7-2.505,2.553-2.65,2.361-2.794,2.216-2.891,2.023-3.083,1.831L406.06,544.2l-3.276,1.4-3.372,1.253-3.421.964-3.565.771-3.613.482-3.71.289h-3.71l-3.613-.289-3.565-.482-3.421-.771-3.421-.964-3.276-1.2-3.132-1.4-3.083-1.638-2.939-1.831L352.15,538.8l-2.65-2.216-2.553-2.361-2.361-2.553-2.216-2.7-2.023-2.794-1.879-3.035-1.686-3.083-1.445-3.228-1.3-3.372-1.06-3.517-.867-3.565-.578-3.613-.385-3.758-.145-3.9.1-3.854.337-3.806.578-3.71.819-3.613,1.06-3.565,1.253-3.421,1.445-3.372,1.638-3.228,1.831-3.132,2.023-2.987,2.168-2.794,2.361-2.746,2.505-2.553,2.65-2.361,2.794-2.216,2.939-2.023,3.035-1.831,3.18-1.638,3.228-1.4,3.421-1.253,3.421-.963,3.517-.771,3.613-.482Zm.482,107.339,3.228-.241,3.18-.434,3.132-.626,2.987-.819,2.987-1.06,3.613-1.542,3.421-1.782,3.276-2.072,3.132-2.312L417.045,531l2.746-2.794,2.553-2.939,2.361-3.18,2.072-3.372,1.879-3.469,1.59-3.661,1.349-3.806.915-3.132.675-3.18.482-3.228.289-3.324.1-3.421-.1-3.372-.337-3.324-.53-3.228-.723-3.083-.867-3.035-1.4-3.758-1.638-3.517-1.879-3.372-2.168-3.18-2.361-3.035-2.553-2.794-2.794-2.553-2.987-2.361-2.505-1.686-2.6-1.542-2.7-1.349-2.794-1.2-2.939-1.012-2.939-.819-3.035-.626-3.083-.385-3.18-.241H384.67l-3.276.241-3.18.434-3.083.626-3.035.819-2.939,1.06-3.613,1.542-3.469,1.783L358.8,450.59l-3.132,2.361-2.939,2.553-2.746,2.746-2.553,2.939-2.361,3.228-2.12,3.324-1.831,3.469-1.638,3.661-1.349,3.806-.867,3.132-.674,3.18-.482,3.228-.337,3.324-.1,3.421.145,3.421.337,3.276.53,3.228.674,3.132.915,2.987,1.4,3.758,1.638,3.517,1.879,3.372,2.12,3.18,2.409,3.035,2.553,2.794,2.746,2.553L356,535.574l2.505,1.686,2.6,1.542,2.7,1.349,2.842,1.2,2.891,1.012,2.939.819,3.035.626,3.132.385,3.18.241H385.1" transform="translate(-331 -437.1)"/></g></g></g></svg>