<svg xmlns="http://www.w3.org/2000/svg" width="54" height="54" viewBox="0 0 54 54"><defs><style>.a{fill:#343434;}</style></defs><path class="a" d="M54,0H27A27,27,0,1,0,54,27ZM48.95,27c0,12.675-9.275,21.95-21.95,21.95S5.05,39.675,5.05,27,14.325,5.05,27,5.05H48.95Z"/><path class="a" d="M306.949,422.172a9.624,9.624,0,0,1-8.483-5.156,2.035,2.035,0,0,0-1.829-1.031,2.076,2.076,0,0,0-1.8,3.066,13.749,13.749,0,0,0,24.2,0,2.076,2.076,0,0,0-1.774-3.066,2.035,2.035,0,0,0-1.815,1.086A9.624,9.624,0,0,1,306.949,422.172Z" transform="translate(-279.283 -392.141)"/></svg>