<svg xmlns="http://www.w3.org/2000/svg" width="54" height="54" viewBox="0 0 54 54"><defs><style>.a{fill:#ff2828;}.b{fill:#fff;}</style></defs><g transform="translate(-811.277 -2286)"><path class="a" d="M54,0H27A27,27,0,1,0,54,27Z" transform="translate(811.277 2286)"/><path class="b" d="M306.949,422.172a9.624,9.624,0,0,1-8.483-5.156,2.035,2.035,0,0,0-1.829-1.031,2.076,2.076,0,0,0-1.8,3.066,13.749,13.749,0,0,0,24.2,0,2.076,2.076,0,0,0-1.774-3.066,2.035,2.035,0,0,0-1.815,1.086A9.624,9.624,0,0,1,306.949,422.172Z" transform="translate(531.994 1892.864)"/></g></svg>