<svg xmlns="http://www.w3.org/2000/svg" width="54" height="54" viewBox="0 0 54 54"><defs><style>.a{fill:#343434;}</style></defs><g transform="translate(-92.212 -102.677)"><path class="a" d="M114.151,104.236,96.236,116.5a9.349,9.349,0,0,0-4.024,7.721v23.171a9.173,9.173,0,0,0,9.053,9.284h35.89a9.173,9.173,0,0,0,9.057-9.284v-23.16a9.354,9.354,0,0,0-4.038-7.731L124.2,104.232a8.872,8.872,0,0,0-10.045.007Zm7.311,4.21,17.978,12.269a4.244,4.244,0,0,1,1.834,3.511V147.39a4.171,4.171,0,0,1-4.117,4.22h-35.89a4.171,4.171,0,0,1-4.117-4.22v-23.17a4.255,4.255,0,0,1,1.831-3.511L116.9,108.449a4.034,4.034,0,0,1,4.564,0Z" transform="translate(0)"/><path class="a" d="M358.4,665.6m3.3,0h19.795q3.3,0,3.3,3.3h0q0,3.3-3.3,3.3H361.7q-3.3,0-3.3-3.3h0Q358.4,665.6,361.7,665.6Z" transform="translate(-252.384 -535.923)"/></g></svg>