<svg xmlns="http://www.w3.org/2000/svg" width="54" height="54" viewBox="0 0 54 54"><defs><style>.a{fill:#ff2828;}.b{fill:#fff;}</style></defs><path d="M118.922,73.184a1.733,1.733,0,0,0-2.173,0L96.6,89.6a1.541,1.541,0,0,0-.6,1.2v24.054a1.642,1.642,0,0,0,1.682,1.6H137.87a1.641,1.641,0,0,0,1.667-1.6V90.8a1.526,1.526,0,0,0-.581-1.2Z" transform="translate(-90.768 -67.664)"/><path class="a" d="M52.553,1.4l21.6,17.688a5.072,5.072,0,0,1,1.881,3.916V48.933a5.047,5.047,0,0,1-1.557,3.7,5.516,5.516,0,0,1-3.851,1.533H27.442a5.516,5.516,0,0,1-3.851-1.533,5.047,5.047,0,0,1-1.557-3.7V23.008a5.071,5.071,0,0,1,1.88-3.915L45.546,1.4a5.626,5.626,0,0,1,7.038,0Z" transform="translate(-22.034 -0.168)"/><path class="b" d="M195.916,577.289H222.2a1.854,1.854,0,0,1,1.809,1.379,4.216,4.216,0,0,1,0,3.056A1.854,1.854,0,0,1,222.2,583.1H195.916c-1-.126-1.774-1.39-1.774-2.907S194.913,577.415,195.916,577.289Z" transform="translate(-181.968 -547.75)"/></svg>