<svg t="1731464555420" class="icon" viewBox="0 0 1024 1024" version="1.1" xmlns="http://www.w3.org/2000/svg" p-id="2125" width="200" height="200"><path d="M375.27466667 33.94133333h-273.06666667c-37.70666667 0-68.26666667 30.56-68.26666667 68.26666667v273.06666667c0 37.70666667 30.56 68.26666667 68.26666667 68.26666666h273.06666667c37.70666667 0 68.26666667-30.56 68.26666666-68.26666666v-273.06666667c0-37.70666667-30.57066667-68.26666667-68.26666666-68.26666667z m0 341.33333334h-273.06666667v-273.06666667h273.06666667v273.06666667z m0 204.77866666h-273.06666667c-37.70666667 0-68.26666667 30.56-68.26666667 68.26666667v273.06666667c0 37.70666667 30.56 68.26666667 68.26666667 68.26666666h273.06666667c37.70666667 0 68.26666667-30.56 68.26666666-68.26666666v-273.06666667c0-37.696-30.57066667-68.26666667-68.26666666-68.26666667z m0 341.33333334h-273.06666667v-273.06666667h273.06666667v273.06666667zM922.77333333 33.94133333h-273.06666666c-37.70666667 0-68.26666667 30.56-68.26666667 68.26666667v273.06666667c0 37.70666667 30.56 68.26666667 68.26666667 68.26666666h273.06666666c37.70666667 0 68.26666667-30.56 68.26666667-68.26666666v-273.06666667c0-37.70666667-30.57066667-68.26666667-68.26666667-68.26666667z m0 341.33333334h-273.06666666v-273.06666667h273.06666666v273.06666667z m0 204.77866666h-273.06666666c-37.70666667 0-68.26666667 30.56-68.26666667 68.26666667v273.06666667c0 37.70666667 30.56 68.26666667 68.26666667 68.26666666h273.06666666c37.70666667 0 68.26666667-30.56 68.26666667-68.26666666v-273.06666667c0-37.696-30.57066667-68.26666667-68.26666667-68.26666667z m0 341.33333334h-273.06666666v-273.06666667h273.06666666v273.06666667z" fill="#3e3e3e" p-id="2126"></path></svg>