
<svg xmlns="http://www.w3.org/2000/svg" xmlns:xlink="http://www.w3.org/1999/xlink" width="252.84" height="262.001" viewBox="0 0 252.84 262.001"><defs><style>.a{opacity:0.55;}.b{fill:url(#a);}</style><linearGradient id="a" x1="0.5" x2="0.5" y2="1" gradientUnits="objectBoundingBox"><stop offset="0" stop-color="#ffcb1b"/><stop offset="1" stop-color="#ff6803"/></linearGradient></defs><g class="a" transform="translate(-80.842 -94.316)"><path class="b" d="M87.382,272.472c16.357,22.491,53.972,38.863,99.766,38.863h.563a48.731,48.731,0,0,0-.563,7.508c0,14.5,7.947,27.022,20.695,36.349a191.489,191.489,0,0,1-20.695,1.125c-58.873,0-106.306-28.626-106.306-61.353,0-8.186,1.622-16.372,6.54-22.491Zm0-73.359c16.357,22.491,53.972,38.863,99.766,38.863h.563a38.255,38.255,0,0,0,5.612,14.206l-1.573,2.762a41.009,41.009,0,0,0-3.576,28h-1.026c-58.873,0-106.306-28.61-106.306-61.353,0-8.169,1.622-14.288,6.54-22.474Zm185.807,13.842a95.536,95.536,0,0,1,19.7,2.877,28.194,28.194,0,0,1,.579,5.772c0,10.055-3.973,19.415-11.01,27.65a102.5,102.5,0,0,1-13.824.926c-24.139,0-42.681-8.269-47.267-15.413,20.894-4.085,38.708-11.775,51.655-21.68ZM187.131,94.316c58.707,0,106.322,25.8,106.322,57.632,0,10.286-4.967,19.944-13.675,28.312q-5.566-.483-11.159-.48c-32.383,0-61.422,11.179-74.369,29.668-2.318.1-4.718.149-7.119.149-58.691-.017-106.289-25.815-106.289-57.649s47.6-57.633,106.305-57.633Z" transform="translate(0)"/><path class="b" d="M607.062,536.014c1.993,5.016,4,8.77,4,13.786,0,21.327-29.067,37.638-65.127,37.638-36.076,0-65.143-17.557-65.143-37.638,0-5.016,1-10.032,4.02-13.786,10.016,13.786,33.053,23.835,61.124,23.835,28.054,0,51.108-10.049,61.124-23.835Zm0-45.012c1.993,5.033,4,8.8,4,13.8,0,21.343-29.067,37.638-65.127,37.638-36.076,0-65.143-17.556-65.143-37.638,0-5.016,1-8.77,4.02-13.786,10.016,13.786,33.053,23.835,61.124,23.835,28.054,0,51.108-10.049,61.124-23.835Zm-61.124-64.263c35.96,0,65.127,15.829,65.127,35.345,0,19.533-29.167,35.362-65.127,35.362-35.977,0-65.143-15.829-65.143-35.362C480.8,442.567,509.962,426.738,545.938,426.738Z" transform="translate(-277.383 -231.121)"/></g></svg>