<svg t="1730875219868" class="icon" viewBox="0 0 1024 1024" version="1.1" xmlns="http://www.w3.org/2000/svg" p-id="2106" width="200" height="200"><path d="M1013.43638639 286.19463842v-3.95402673a3.55824833 3.55824833 0 0 0 0-1.97638714L921.84249048 64.11911263c-14.27808198-38.75998272-52.69989959-63.78044269-94.61358499-61.61242866H204.85607924c-39.91099653-1.8649179-76.65075589 21.26682737-91.59389591 57.65965439v1.97638714l-95.95622569 222.07427332a203.54908818 203.54908818 0 0 0-10.39544564 59.30664368c0.08141011 67.71443002 37.59894921 130.04577264 97.96893426 162.76387224l-1.3426407 0.32939786 12.41441655 6.26231666a204.54604901 204.54604901 0 0 0 80.18645987 15.48545664 193.39536795 193.39536795 0 0 0 145.94704711-65.89710573l12.41441654-15.48545663 12.41316407 15.48545663c66.89907639 78.610861 186.02336879 89.07894954 266.07205769 23.38349039a187.18941213 187.18941213 0 0 0 23.80932794-23.38349039l12.41441653-15.48545663 12.4131641 15.48545663a171.40962663 171.40962663 0 0 0 10.39544565 10.912713c4.5802584 2.07157435 10.82504058 3.33155247 14.02758931 4.133129a34.21479329 34.21479329 0 0 0 23.28329333-2.76418658c7.58742286-3.59957961 14.71143429-8.54430484 21.82667848-13.13458295A145.25318242 145.25318242 0 0 1 773.8213641 446.87190675c1.36518504-0.93433765 2.73287499-1.86617036 4.08804032-2.81929494a5.41565144 5.41565144 0 0 1 3.93649226-1.07586602 146.91394879 146.91394879 0 0 1 45.38300881-12.14889431 336.11105966 336.11105966 0 0 1 158.36021118 17.78497931 180.00027262 180.00027262 0 0 0 35.56995861-107.41000286 150.95940534 150.95940534 0 0 0-7.72268889-55.00818951zM759.52199025 304.12866086H266.40588473a25.59534065 25.59534065 0 0 1 0-51.17815665h493.11610552a25.59534065 25.59534065 0 0 1 0 51.17815665z" fill="#1972FF" p-id="2107"></path><path d="M686.68623767 991.0409226l-0.19663675-0.38826364a44.27082138 44.27082138 0 0 1-3.15370267-5.77009857c-24.063578-36.27008563-34.90490059-87.34053043-34.90490059-142.94864988V657.9983981q1.25246333-24.13121101 3.54697616-48.14093308c0.15655792-6.17965407 0.14653821-12.36181309-0.13902344-18.5364573-0.18536457-4.02040729 0.29933874-9.61265607-1.61567769-13.30491798-2.43353625-4.6929801-7.82413843-4.54143204-12.27414064-2.98712505a58.13559046 58.13559046 0 0 0-10.50440998 5.1952179c-33.87036588 35.36705956-76.94383231 55.37140389-121.94358734 55.81978577-56.01266512-0.54106416-109.14967442-30.7066435-145.9470471-82.85295433l-13.42139707-19.47329986-12.41441653 19.47079496c-36.49678148 52.6385289-89.82667013 82.91307255-145.9470471 82.8529543a162.21153592 162.21153592 0 0 1-80.18645987-19.47079496l-3.01968911-2.48488724-5.36805784-2.48613972-5.36805782-2.48488724a231.92239249 231.92239249 0 0 1-33.55098774-28.17040526v340.94306321c0.54983141 54.6775392 36.8925599 98.45238511 81.17590591 97.77354996h524.00811358a102.19474554 102.19474554 0 0 0 7.78155468-1.9676199c5.65737686-1.69333042 12.42067885-4.05171888 15.71340495-9.18556608 3.6885045-5.76508871 0.49597548-12.02114305-2.270716-17.4668536zM449.54984031 836.45939329H376.07533143v73.47325641a24.5620584 24.5620584 0 0 1-24.49066797 24.49066799 24.5620584 24.5620584 0 0 1-24.490668-24.49066799v-73.47325641h-73.47450887a24.49192045 24.49192045 0 0 1 0-48.98258843h73.47450887v-73.47325643a24.56331086 24.56331086 0 0 1 24.490668-24.49066799 24.56331086 24.56331086 0 0 1 24.49066797 24.49066799v73.47325643h73.47450888a24.49192045 24.49192045 0 0 1 0 48.98258843z" fill="#1972FF" p-id="2108"></path><path d="M688.85926154 668.49779821c0 55.81602837 75.72017563 101.03245956 168.66297455 101.03245957s168.66297455-44.86323653 168.66297455-101.03245957-75.71892317-101.03245956-168.66297455-101.03245957-168.66297455 44.86448901-168.66297455 101.03245957z" fill="#1972FF" p-id="2109"></path><path d="M857.52223609 813.33516279c-58.79563863 4.43622512-116.52543098-18.7105497-158.5881595-63.58756334a65.37858591 65.37858591 0 0 0-10.07481505 37.44865362c0 53.69560794 75.72017563 101.03245956 168.66297455 101.03245956s168.66297455-43.80365256 168.66297455-101.03245956a103.16665708 103.16665708 0 0 0-10.07356259-37.44865362c-42.06398099 44.87701363-99.79252087 68.02378846-158.58941196 63.58756334z" fill="#1972FF" p-id="2110"></path><path d="M857.52223609 935.20735974c-58.84573717 4.34354283-116.58179183-18.93474065-158.5881595-63.93950555a59.31791585 59.31791585 0 0 0-10.07481505 37.44865361c0 53.69560794 75.72017563 101.03245956 168.66297455 101.03245958s168.66297455-43.80365256 168.66297455-101.03245958a103.15413245 103.15413245 0 0 0-10.07356259-37.44865361c-42.00762014 45.00726983-99.74367481 68.28555329-158.58941196 63.93950555z" fill="#1972FF" p-id="2111"></path></svg>