<svg xmlns="http://www.w3.org/2000/svg" xmlns:xlink="http://www.w3.org/1999/xlink" width="88" height="72" viewBox="0 0 88 72"><defs><style>.a{fill:url(#a);}</style><linearGradient id="a" x1="0.032" y1="0.892" x2="0.953" y2="0.892" gradientUnits="objectBoundingBox"><stop offset="0" stop-color="#fff" stop-opacity="0.2"/><stop offset="1" stop-color="#fff" stop-opacity="0.8"/></linearGradient></defs><path class="a" d="M103.648,138.688a177.37,177.37,0,0,1,18.092.525c4.758.543,8.62,1.666,11.824,4.215a21.386,21.386,0,0,1,2.658,2.512c2.726,3.08,3.941,6.8,4.525,11.375a2.961,2.961,0,0,1,.037,1.018,1.263,1.263,0,0,1-.724.839,3.115,3.115,0,0,1-1.05.086h-83.4a3.053,3.053,0,0,1-1.044-.086,1.257,1.257,0,0,1-.737-.839,2.9,2.9,0,0,1,.043-1.018c.577-4.567,1.8-8.295,4.525-11.375a21.04,21.04,0,0,1,2.658-2.512c3.2-2.549,7.06-3.672,11.818-4.215a177.563,177.563,0,0,1,18.1-.525ZM141.312,174.9a148.838,148.838,0,0,1-.565,17.158c-.583,4.567-1.8,8.295-4.525,11.368a21.07,21.07,0,0,1-2.658,2.518c-3.2,2.549-7.06,3.672-11.818,4.215a177.563,177.563,0,0,1-18.1.525H90.976a177.5,177.5,0,0,1-18.1-.525c-4.752-.543-8.613-1.666-11.818-4.215A21.058,21.058,0,0,1,58.4,203.43c-2.726-3.074-3.948-6.8-4.525-11.368a148.835,148.835,0,0,1-.565-17.158v-.432c0-2.37,0-4.573.025-6.629.012-1.129.012-1.7.368-2.055s.933-.358,2.069-.358H138.85c1.136,0,1.7,0,2.063.358s.368.926.374,2.055c.025,2.055.025,4.259.025,6.622ZM90.148,191.148a3.078,3.078,0,0,0,3.07,3.086h6.139a3.086,3.086,0,0,0,0-6.172H93.217A3.078,3.078,0,0,0,90.148,191.148Zm21.487-3.086a3.086,3.086,0,0,0,0,6.172h14.329a3.086,3.086,0,0,0,0-6.172Z" transform="translate(-53.312 -138.688)"/></svg>