<svg xmlns="http://www.w3.org/2000/svg" width="58" height="40" viewBox="0 0 58 40"><defs><style>.a{fill:#ffa42c;}</style></defs><path class="a" d="M58,9.411H0v-4.7A4.771,4.771,0,0,1,4.833,0H53.167A4.771,4.771,0,0,1,58,4.707v4.7Zm0,2.882v23A4.771,4.771,0,0,1,53.167,40H4.833A4.771,4.771,0,0,1,0,35.293v-23H58ZM29.836,28.762v-1.2h3.405c.9,0,1.356-.433,1.356-1.293a1.181,1.181,0,0,0-1.353-1.318H31.383l2.9-4.682a1.874,1.874,0,0,0,.338-1.071,1.183,1.183,0,0,0-.653-.789,4.076,4.076,0,0,0-.507-.271.87.87,0,0,0-.483-.069.925.925,0,0,0-.472.236,2.835,2.835,0,0,0-.494.622L30.223,21.88q-.9,1.467-1.788,2.953l-3.673-5.978a1.441,1.441,0,0,0-.907-.776,1.445,1.445,0,0,0-1.026.307,1.332,1.332,0,0,0-.593.8,1.452,1.452,0,0,0,.279,1.082q1.47,2.343,2.948,4.682H23.551a1.158,1.158,0,0,0-1.3,1.318c0,.86.453,1.293,1.353,1.293h3.359v1.2H23.553a1.159,1.159,0,0,0-1.3,1.318q0,1.293,1.353,1.293h3.359V34.1a1.644,1.644,0,0,0,.338,1.222,1.643,1.643,0,0,0,1.112.307,1.566,1.566,0,0,0,1.16-.307,1.982,1.982,0,0,0,.264-1.222V31.373h3.41c.9,0,1.353-.431,1.353-1.293a1.181,1.181,0,0,0-1.353-1.318H29.836Z"/></svg>