<svg xmlns="http://www.w3.org/2000/svg" width="46.001" height="38" viewBox="0 0 46.001 38"><defs><style>.a{fill:none;}.b{fill:#868686;}</style></defs><g transform="translate(-49.999 -1652)"><rect class="a" width="46" height="38" transform="translate(50 1652)"/><g transform="translate(49.092 1652)"><path class="b" d="M36.587,133.978h4.662a1.167,1.167,0,0,0,.831-.35,1.2,1.2,0,0,0,.344-.844V106.1a1.184,1.184,0,0,0-1.175-1.193H14.365A1.184,1.184,0,0,0,13.19,106.1v26.625a1.2,1.2,0,0,0,.344.844,1.166,1.166,0,0,0,.831.35h7.129a1.193,1.193,0,0,0,0-2.387H15.539V107.3H40.073V131.59H36.587a1.194,1.194,0,0,0,0,2.388Zm0,0" transform="translate(3.575 -104.91)"/><path class="b" d="M202.459,247.057a6.32,6.32,0,1,0-6.223-6.32A6.279,6.279,0,0,0,202.459,247.057Zm0-10.252a3.933,3.933,0,1,1-3.871,3.932A3.907,3.907,0,0,1,202.459,236.806ZM179.8,247.057a6.32,6.32,0,1,0-6.223-6.32A6.279,6.279,0,0,0,179.8,247.057Zm0-10.252a3.933,3.933,0,1,1-3.871,3.932A3.906,3.906,0,0,1,179.8,236.806Zm-7.638-.821a1.165,1.165,0,0,0,.831-.35,1.2,1.2,0,0,0,.344-.844v-8.947l7.019-8.7h6.818c.42,0-.177-.227.033-.6a1.181,1.181,0,0,0,1.157-.986,1.2,1.2,0,0,0-.755-1.329c-.536-.2-.15.023-.435.525H179.8a1.172,1.172,0,0,0-.909.437l-7.638,9.463a1.207,1.207,0,0,0-.266.757v9.374A1.185,1.185,0,0,0,172.166,235.985Zm0,0" transform="translate(-169.99 -209.057)"/><path class="b" d="M113.841,213.695h9.746a1.171,1.171,0,0,0,1.018-.6,1.21,1.21,0,0,0,0-1.193,1.172,1.172,0,0,0-1.018-.6H113.84a1.194,1.194,0,0,0,0,2.387Zm38.116-5.8a1.175,1.175,0,0,0,1.087-.737,1.207,1.207,0,0,0-.255-1.3l-5.106-5.186a1.162,1.162,0,0,0-1.662,0,1.208,1.208,0,0,0,0,1.688l5.105,5.185A1.167,1.167,0,0,0,151.957,207.9Zm-1.663,6.346a1.174,1.174,0,0,0,1.087-.737,1.206,1.206,0,0,0-.255-1.3l-9.826-9.979a1.163,1.163,0,0,0-1.662,0,1.207,1.207,0,0,0,0,1.688l9.826,9.979A1.165,1.165,0,0,0,150.293,214.244Zm0,0" transform="translate(-111.758 -195.865)"/></g></g></svg>