<svg xmlns="http://www.w3.org/2000/svg" width="54.518" height="50" viewBox="0 0 54.518 50"><defs><style>.a{fill:#686868;}</style></defs><path class="a" d="M125.641,114.439l-.445-.671H86.774l-.449.575c-9.79,12.5-8.436,20.109-6.759,23.536a9.865,9.865,0,0,0,8.684,5.654h.324a13.387,13.387,0,0,0,9.138-4.063,11.073,11.073,0,0,0,16.895-.21c1.923,1.568,5.676,4.136,9.61,4.136a8.425,8.425,0,0,0,6.588-3.141C137.483,132.48,126.128,115.171,125.641,114.439ZM128.5,138.3a5.41,5.41,0,0,1-4.289,2.092c-3.792,0-7.73-3.434-8.609-4.25V125.851c0-.029.016-.05.016-.078a1.506,1.506,0,1,0-3.011,0h-.016v11.194a8.077,8.077,0,0,1-13.294-.361V125.773a1.506,1.506,0,1,0-3.011,0v10.778a10.437,10.437,0,0,1-7.834,3.989h-.2v0a6.913,6.913,0,0,1-5.979-3.98c-1.344-2.74-2.319-8.934,5.976-19.788h35.314C126.7,121.724,132.644,133.5,128.5,138.3Zm-2.729,6.938a1.52,1.52,0,0,0-1.519,1.513v10.933a3.04,3.04,0,0,1-3.038,3.041H90.072a3.04,3.04,0,0,1-3.038-3.041V146.758a1.518,1.518,0,0,0-3.036,0V157.99a5.772,5.772,0,0,0,5.769,5.778H121.52a5.772,5.772,0,0,0,5.769-5.778V146.754A1.519,1.519,0,0,0,125.772,145.241Z" transform="translate(-78.385 -113.768)"/></svg>