<svg xmlns="http://www.w3.org/2000/svg" xmlns:xlink="http://www.w3.org/1999/xlink" width="88" height="88" viewBox="0 0 88 88"><defs><style>.a{fill:url(#a);}.b{fill:#fff;}</style><linearGradient id="a" x1="0.5" x2="0.5" y2="1" gradientUnits="objectBoundingBox"><stop offset="0" stop-color="#3376f6"/><stop offset="1" stop-color="#0154e4"/></linearGradient></defs><g transform="translate(-84 -1222)"><g transform="translate(83.778 1222.286)"><circle class="a" cx="44" cy="44" r="44" transform="translate(0.222 -0.286)"/></g><path class="b" d="M30.956,45.2A14.268,14.268,0,0,1,17.375,26.628L.288,9.541A.989.989,0,0,1,0,8.843V.983A.984.984,0,0,1,.983,0h6.88a.991.991,0,0,1,.7.288l1.978,1.978a.986.986,0,0,1,.288.7V6.088h3.128a.983.983,0,0,1,.983.983V9.826h2.755a.991.991,0,0,1,.7.288L25.9,17.63A14.25,14.25,0,1,1,30.956,45.2ZM21.011,23.266,4.277,6.532a.492.492,0,1,0-.692.7L20.319,23.958a.492.492,0,0,0,.7-.7Zm17.017,1.56-.7-.7-13.205,13.2.7.7a9.336,9.336,0,1,0,13.2-13.2Z" transform="translate(105 1243)"/></g></svg>