<svg xmlns="http://www.w3.org/2000/svg" width="71.021" height="71.021" viewBox="0 0 71.021 71.021"><defs><style>.a{fill:none;}.b{fill:#333;}</style></defs><g transform="translate(-225.8 -91.4)"><g transform="translate(225.8 91.4)"><path class="a" d="M35.511,0A35.511,35.511,0,1,1,0,35.511,35.511,35.511,0,0,1,35.511,0Z" transform="translate(0)"/><path class="b" d="M22.154,43.811.056,22.558a3.5,3.5,0,0,1,0-1.25L22.154.055a3.564,3.564,0,0,1,1.3,0l1.6,2.5a3.127,3.127,0,0,1,0,1.25l-18.2,17.5a1.087,1.087,0,0,0,0,1.25L23.787,38.842l1.267,1.218a3.1,3.1,0,0,1,0,1.25l-1.6,2.5A3.6,3.6,0,0,1,22.154,43.811Z" transform="translate(19.842 12.945)"/></g></g></svg>