<svg xmlns="http://www.w3.org/2000/svg" width="58" height="40" viewBox="0 0 58 40"><defs><style>.a{fill:#ff0159;}</style></defs><path class="a" d="M68.59,233.091a3.019,3.019,0,0,1,.949-1.851,2.953,2.953,0,0,1,2.8-.683l4.037,1.183a1.378,1.378,0,0,1,.187.076,1.5,1.5,0,0,1,1.121-.971l.673-.129V222H68.785A4.825,4.825,0,0,0,64,226.855v6.236Zm9.771,11.645-1.742,1.047a1.1,1.1,0,0,1-1.219-.068,1.135,1.135,0,0,1-.426-1.161l1.764-7.814-2.878,2.223a2.912,2.912,0,0,1-2.856.4,2.972,2.972,0,0,1-1.832-2.253l-.292-1.593H64v21.626A4.825,4.825,0,0,0,68.785,262h9.577Zm11.73-9.217a2.777,2.777,0,0,1-.292.3,2.929,2.929,0,0,1-2.818.652l-3.282-.963h-.142l4.351,6.6a1.124,1.124,0,0,1,.022,1.244,1.1,1.1,0,0,1-1.136.508l-3.394-.614a1.1,1.1,0,0,1-.792-.592.131.131,0,0,1-.007-.053l-1.854-5.052V262h36.469A4.825,4.825,0,0,0,122,257.145V235.519Zm11.4,22.146a2.163,2.163,0,0,0,1.622-.645v-1.29h-1.869v-1.183h3.11v2.868a3.148,3.148,0,0,1-2.863,1.358c-2.093-.1-3.177-1.358-3.252-3.8.12-2.458,1.189-3.778,3.215-3.945a2.762,2.762,0,0,1,2.893,2.261l-1.2.463c-.284-1.054-.845-1.563-1.7-1.54-1.293.121-1.951,1.024-1.981,2.723C99.528,256.663,100.193,257.566,101.494,257.664Zm5.256.971h-1.234v-7.419h1.234Zm5.338-6.236h-2.826v1.79h2.362v1.183h-2.362v3.262H108.02v-7.419h4.059V252.4Zm5.614,0h-1.869v6.236h-1.271V252.4h-1.944v-1.183H117.7ZM80.753,230.284a1.461,1.461,0,0,1,1.2.523,1.228,1.228,0,0,1,.15-.129l3.357-2.564a2.912,2.912,0,0,1,2.856-.4,2.967,2.967,0,0,1,1.854,2.268l.561,3.08c0,.015.007.03.007.046H122v-6.251A4.825,4.825,0,0,0,117.215,222H80.753Z" transform="translate(-64 -222)"/></svg>