<svg xmlns="http://www.w3.org/2000/svg" width="44" height="39.049" viewBox="0 0 44 39.049"><defs><style>.a{fill:#272536;}.b{fill:#231f20;}</style></defs><g transform="translate(-102.723 -154.623)"><path class="a" d="M872.8,755.646h0v-.021Z" transform="translate(-728.15 -568.54)"/><path class="b" d="M117.008,154.623H105.785a3.065,3.065,0,0,0-3.062,3.06v11.224a3.064,3.064,0,0,0,3.062,3.06h11.223a3.064,3.064,0,0,0,3.061-3.06V157.683a3.065,3.065,0,0,0-3.061-3.06m.142,3.06v11.224a.144.144,0,0,1-.142.143H105.785a.147.147,0,0,1-.145-.143V157.683a.144.144,0,0,1,.145-.143h11.223a.141.141,0,0,1,.142.143"/><path class="b" d="M117.008,569.837H105.785a3.066,3.066,0,0,0-3.062,3.061v11.224a3.064,3.064,0,0,0,3.062,3.061h11.223a3.064,3.064,0,0,0,3.061-3.061V572.9a3.066,3.066,0,0,0-3.061-3.061m.142,3.061v11.224a.143.143,0,0,1-.142.143H105.785a.146.146,0,0,1-.145-.143V572.9a.145.145,0,0,1,.145-.143h11.223a.142.142,0,0,1,.142.143" transform="translate(0 -393.511)"/><path class="b" d="M500.771,178.232a.237.237,0,0,0,.136.046h.1a.269.269,0,0,0,.074,0h19.775l.038,0a.236.236,0,0,0,.036,0H521a.212.212,0,0,0,.114-.036,1.455,1.455,0,0,0,.03-2.827.231.231,0,0,0-.144-.054h-20.1a.209.209,0,0,0-.134.059,1.453,1.453,0,0,0,0,2.811" transform="translate(-375.642 -19.538)"/><path class="b" d="M500.78,365.072a.224.224,0,0,0,.155.066h20.1a.213.213,0,0,0,.132-.054,1.455,1.455,0,0,0-.013-2.828.221.221,0,0,0-.119-.035l-.038.007a.359.359,0,0,0-.123-.007l-19.727.007a.363.363,0,0,0-.124-.007h-.084a.189.189,0,0,0-.119.041,1.453,1.453,0,0,0-.036,2.81" transform="translate(-375.669 -196.305)"/><path class="b" d="M500.782,614.2a.224.224,0,0,0,.153.062h20.1a.215.215,0,0,0,.064-.01,1.462,1.462,0,0,0-.064-2.909l-.038,0H501.1a.27.27,0,0,0-.074,0h-.094a.2.2,0,0,0-.122.042,1.454,1.454,0,0,0-.031,2.812" transform="translate(-375.669 -431.883)"/><path class="b" d="M521.127,777.507a.221.221,0,0,0-.088-.018h-20.1a.2.2,0,0,0-.139.066,1.454,1.454,0,0,0,.017,2.815.219.219,0,0,0,.122.035l.039-.007a.431.431,0,0,0,.141.007l19.83-.007a.51.51,0,0,0,.094.017,1.463,1.463,0,0,0,.088-2.908" transform="translate(-375.669 -589.138)"/></g></svg>