<svg xmlns="http://www.w3.org/2000/svg" width="102.88" height="102.88" viewBox="0 0 102.88 102.88"><defs><style>.a,.b{fill:none;}.a{stroke:rgba(0,0,0,0);stroke-width:2.88px;}.b{opacity:0.01;}.c{fill:#446aff;}.d{fill:#449bff;}.e{fill:#fff;}</style></defs><g transform="translate(-894.559 -1048.56)"><g transform="translate(25.5 294.24)"><g transform="translate(418.359 0)"><circle class="a" cx="50" cy="50" r="50" transform="translate(452.14 755.76)"/></g><g transform="translate(882.407 765.668)"><path class="b" d="M0,0H76.184V76.184H0Z"/><path class="c" d="M307.2,141.612a5.079,5.079,0,0,1,5.079-5.079h35.552a7.618,7.618,0,0,1,7.618,7.618v40.631a7.618,7.618,0,0,1-7.618,7.618H312.279a5.079,5.079,0,0,1-5.079-5.079v-45.71Z" transform="translate(-284.345 -126.375)"/><path class="d" d="M68.267,55.385a5.079,5.079,0,0,1,3.743-4.9l20.984-5.724A2.539,2.539,0,0,1,96.2,47.216v64.456a2.539,2.539,0,0,1-3.207,2.448L72.01,108.4a5.079,5.079,0,0,1-3.743-4.9Z" transform="translate(-63.188 -41.35)"/><path class="e" d="M332.594,303.385a1.27,1.27,0,0,1,2.235-.828L347.122,316.9a1.27,1.27,0,0,1,0,1.651L334.829,332.9a1.27,1.27,0,0,1-2.235-.828v-9.264h-6.349a1.27,1.27,0,0,1-1.27-1.27v-7.618a1.27,1.27,0,0,1,1.27-1.27h6.349Zm-22.855,9.264a2.539,2.539,0,0,0-2.539,2.539v5.079a2.539,2.539,0,1,0,5.079,0v-5.079A2.539,2.539,0,0,0,309.739,312.648Z" transform="translate(-284.345 -279.636)"/></g></g></g></svg>