<svg t="1729667266330" class="icon" viewBox="0 0 1024 1024" version="1.1" xmlns="http://www.w3.org/2000/svg" p-id="1477" width="200" height="200"><path d="M482.36582295 615.21639777l0.55913542 0.33548125 0.44730834 0.55913542c6.5977979 7.38058749 16.10309998 11.51818956 25.94388329 11.51818956 9.9526104 0 19.45791247-4.13760208 26.05571038-11.51818956l0.44730833-0.55913542 0.55913542-0.44730833c64.63605407-61.1694145 215.15530804-220.07569969 215.15530803-372.49601406 0-133.40971022-108.58409776-241.77015382-242.21746216-241.77015382-133.40971022 0-242.21746216 108.47227068-242.21746215 241.77015382 0.11182709 152.42031437 150.63108103 311.32659956 215.2671351 372.60784114zM337.88523149 243.72682747c0-94.3820582 76.93703322-171.20726435 171.43091851-171.20726435 94.60571237 0 171.5427456 76.82520614 171.5427456 171.20726435 0 85.88319988-61.1694145 184.7383414-112.60987277 252.72920796-12.30097915 20.68801038-34.66639578 33.54812495-58.93287283 33.54812496-24.15464997 0-46.52006659-12.86011456-58.82104575-33.54812496-51.44045826-68.10269365-112.60987275-166.95783517-112.60987276-252.72920796z m635.62514078 15.99127289l-2.0128875 0.11182709c-5.47952708 0.22365416-10.84722706 1.90106041-15.65579164 4.5849104l-76.60155198 44.17169785c-8.05154999 4.69673749-13.86655831 12.18915206-16.32675415 21.13531873-2.34836875 8.94616665-1.11827084 18.45146873 3.46663959 26.39119162 6.26231665 10.73539998 17.78050623 17.33319789 30.19331245 17.33319789 5.9268354 0 11.96549789-1.56557915 17.2213708-4.47308333l25.04926664-14.20203955v434.0009098L673.25465394 924.64193691 354.10015856 757.34862049l-1.11827083-1.00644375c-6.03866249-4.47308334-13.41924998-6.93327915-21.24714581-6.93327917h-0.89461666c-7.71606874 0-15.32031039 2.57202291-21.35897289 7.26876042l-1.11827083 0.78278958-228.23907677 123.0097915v-445.07179105l59.60383534-34.44274161c8.05154999-4.69673749 13.75473124-12.18915206 16.21492706-21.13531872 2.34836875-8.94616665 1.11827084-18.22781456-3.46663957-26.27936455-6.26231665-10.6235729-17.78050623-17.33319789-30.19331246-17.33319789-6.03866249 0-12.07732498 1.56557915-17.3331979 4.5849104l-76.82520614 44.28352494c-6.5977979 3.69029375-11.63001665 9.39347499-14.76117498 16.77406248-2.0128875 4.47308334-3.01933125 9.2816479-3.01933125 14.09021249V938.0611869c0 4.24942915 0.6709625 8.49885832 2.34836875 12.63646039 0.55913541 1.56557915 1.11827084 2.90750415 1.90106042 4.13760208 6.03866249 11.51818956 17.89233331 18.78694997 30.97610203 18.78694997 5.59135415 0 11.07088124-1.341925 15.87944581-3.80212082l270.39788712-145.71068937 326.08777455 170.87178308c5.03221875 2.57202291 10.39991874 3.91394791 16.10309996 3.91394791 7.60424166 0 15.20848331-2.57202291 21.3589729-7.26876041l1.23009792-0.89461665 293.09878499-149.84829146c8.38703124-4.24942915 14.53752081-11.74184374 17.3331979-21.13531871 1.11827084-3.46663958 1.56557915-6.93327915 1.56557916-10.51174583V294.49632322c-0.11182709-19.12243123-15.76761873-34.77822287-35.11370411-34.77822286z" fill="#a0a0a0" p-id="1478"></path></svg>