<svg xmlns="http://www.w3.org/2000/svg" xmlns:xlink="http://www.w3.org/1999/xlink" width="102.88" height="102.88" viewBox="0 0 102.88 102.88"><defs><style>.a{fill:none;}.a,.d{stroke:rgba(0,0,0,0);stroke-width:2.88px;}.b{fill:url(#a);}.c{fill:url(#b);}.d{fill:url(#c);}</style><linearGradient id="a" x1="0.052" y1="0.119" x2="0.5" y2="0.554" gradientUnits="objectBoundingBox"><stop offset="0" stop-color="#ffae14"/><stop offset="1" stop-color="#ff8c00"/></linearGradient><linearGradient id="b" x1="0.091" y1="0.172" x2="0.93" y2="0.87" gradientUnits="objectBoundingBox"><stop offset="0" stop-color="#ffdb26"/><stop offset="1" stop-color="#ff8c00"/></linearGradient><linearGradient id="c" x1="0.5" x2="0.5" y2="1" gradientUnits="objectBoundingBox"><stop offset="0" stop-color="#575757"/><stop offset="0.003" stop-color="#fffbf3"/><stop offset="1" stop-color="#ffedd5"/></linearGradient></defs><g transform="translate(-319.1 -754.32)"><circle class="a" cx="50" cy="50" r="50" transform="translate(320.54 755.76)"/><g transform="translate(332.541 772.76)"><path class="b" d="M0,0H62.7a0,0,0,0,1,0,0V32.171a2.715,2.715,0,0,1-2.715,2.715H2.715A2.715,2.715,0,0,1,0,32.171V0A0,0,0,0,1,0,0Z" transform="translate(6.601 31.114)"/><path class="c" d="M4.145,2.569A3,3,0,0,1,7.114,0h9.2l1.776,1.886H56.757L58.9,0h9.887a3,3,0,0,1,2.969,2.569L75.9,31.113H0Z" transform="translate(0)"/><path class="d" d="M23.068,26.4a2.428,2.428,0,0,1-1.193-.351l-6.188-3.513a2.032,2.032,0,0,0-1.675,0L7.825,26.049a2.429,2.429,0,0,1-1.193.351,1.575,1.575,0,0,1-1.21-.532,1.72,1.72,0,0,1-.274-1.626L6.83,17.685A1.694,1.694,0,0,0,6.312,16.2L.806,11.82A1.614,1.614,0,0,1,.072,9.981,1.8,1.8,0,0,1,1.829,8.894l7.228-.539a1.906,1.906,0,0,0,1.355-.915L13.2,1.218a1.733,1.733,0,0,1,3.309,0L19.29,7.441a1.9,1.9,0,0,0,1.355.915l7.227.539a1.8,1.8,0,0,1,1.758,1.086,1.615,1.615,0,0,1-.735,1.839L23.389,16.2a1.7,1.7,0,0,0-.518,1.481l1.683,6.555a1.719,1.719,0,0,1-.274,1.626,1.576,1.576,0,0,1-1.211.533Z" transform="translate(23.1 19.33)"/></g></g></svg>