<svg xmlns="http://www.w3.org/2000/svg" width="58" height="58" viewBox="0 0 58 58"><defs><style>.a{fill:#ff2828;}</style></defs><path class="a" d="M152.439,187.232a6.872,6.872,0,0,0-6.775-6.932H101.375a6.872,6.872,0,0,0-6.775,6.932v6.2h57.839v-6.2ZM94.6,198.1v33.255a6.88,6.88,0,0,0,6.775,6.941h44.45a6.875,6.875,0,0,0,6.775-6.941V198.1Zm11.417,27.259a.99.99,0,0,1-.3.688,1.214,1.214,0,0,1-1.6-.018.99.99,0,0,1-.287-.66v-11.25q-.323.234-.618.468a1.226,1.226,0,0,1-.69.257.746.746,0,0,1-.681-.468,1.157,1.157,0,0,1-.152-.935,1.527,1.527,0,0,1,.457-.578l.681-.559a7,7,0,0,0,.842-.816,4.684,4.684,0,0,1,.672-.66,1.355,1.355,0,0,1,.6-.248,1.023,1.023,0,0,1,.591.156.822.822,0,0,1,.394.358,4.038,4.038,0,0,1,.081,1.027v13.24Zm14.168.66a.836.836,0,0,1-.672.358H114.28a1.542,1.542,0,0,1-.9-.293,1.4,1.4,0,0,1-.556-.834,2.151,2.151,0,0,1,.072-1.2,5.529,5.529,0,0,1,.376-.963q.282-.591.618-1.183c.224-.394.5-.862.842-1.412s.636-.99.887-1.339.582-.779.986-1.284.7-.88.878-1.128a3.127,3.127,0,0,0,.376-.678,2.972,2.972,0,0,0,.161-.633,3.542,3.542,0,0,0,.027-.7,2.751,2.751,0,0,0-.242-.77,2.474,2.474,0,0,0-.466-.651,1.3,1.3,0,0,0-.959-.3,1.591,1.591,0,0,0-1.049.422,1.788,1.788,0,0,0-.5,1.21l-.045,1.394a1.389,1.389,0,0,1-.332.706.942.942,0,0,1-.9.22.953.953,0,0,1-.744-.358,1.1,1.1,0,0,1-.17-.568c0-.183.009-.431.027-.724a8.574,8.574,0,0,1,.26-1.742,4.4,4.4,0,0,1,.547-1.082,2.945,2.945,0,0,1,.86-.88,3.587,3.587,0,0,1,1.237-.468,4.474,4.474,0,0,1,1.479-.055,3.7,3.7,0,0,1,1.138.376,3.131,3.131,0,0,1,.986.834,4.78,4.78,0,0,1,.726,1.348,4.267,4.267,0,0,1,.242,1.65,3.862,3.862,0,0,1-.269,1.174,5.661,5.661,0,0,1-.52.99c-.2.293-.511.706-.941,1.247s-.824,1.036-1.183,1.5-.636.862-.833,1.183l-.959,1.632c-.26.4-.35.678-.269.816a.449.449,0,0,0,.269.275,1.7,1.7,0,0,0,.618.092h3.459a.87.87,0,0,1,.663.3,1.064,1.064,0,0,1,.287.724,1.2,1.2,0,0,1-.287.788Zm11.453-2.21a3.906,3.906,0,0,1-.457,1.064,3.123,3.123,0,0,1-.789.834,3.539,3.539,0,0,1-1.192.568,4.165,4.165,0,0,1-1.568.1,4.565,4.565,0,0,1-1.38-.312,2.721,2.721,0,0,1-1.147-.862,2.437,2.437,0,0,1-.565-1.027,8.994,8.994,0,0,1-.134-1.384c-.027-.633-.036-1.036-.027-1.183a1.213,1.213,0,0,1,.269-.578.879.879,0,0,1,.726-.275.828.828,0,0,1,.645.275,1.465,1.465,0,0,1,.26.578l.027,1.375a1.53,1.53,0,0,0,.287.825,1.393,1.393,0,0,0,.681.468,1.717,1.717,0,0,0,.941.037,1.624,1.624,0,0,0,.887-.422,1.809,1.809,0,0,0,.475-.733,3.208,3.208,0,0,0,.152-.917c.009-.339,0-.614-.009-.816a2.1,2.1,0,0,0-.511-1.3,2.4,2.4,0,0,0-.816-.532,3.489,3.489,0,0,0-.851-.2,3.252,3.252,0,0,1-.6-.092.739.739,0,0,1-.349-.3,1.126,1.126,0,0,1-.2-.66,1.388,1.388,0,0,1,.125-.678.664.664,0,0,1,.287-.348,1.756,1.756,0,0,1,.636-.138,2.716,2.716,0,0,0,.968-.293,2.312,2.312,0,0,0,.833-.706,2.226,2.226,0,0,0,.341-1.293,1.87,1.87,0,0,0-.385-1.284,1.528,1.528,0,0,0-1.013-.523,1.907,1.907,0,0,0-.86.156,1.539,1.539,0,0,0-.717.633,2.183,2.183,0,0,0-.3,1.128c-.009.449-.027.752-.045.908a.727.727,0,0,1-.242.44.942.942,0,0,1-.726.183.9.9,0,0,1-.708-.22.925.925,0,0,1-.206-.532,5.6,5.6,0,0,1,0-.779,7.164,7.164,0,0,1,.242-1.467,3.074,3.074,0,0,1,.591-1.219,3.35,3.35,0,0,1,1.013-.807,4.084,4.084,0,0,1,1.479-.422,3.74,3.74,0,0,1,1.685.22,3.86,3.86,0,0,1,1.156.706,3.19,3.19,0,0,1,.726.99,4.3,4.3,0,0,1,.367,1.311,6.459,6.459,0,0,1,.045,1.284,4.124,4.124,0,0,1-.394,1.311,1.918,1.918,0,0,1-.887.871q-.578.275-.511.3.484.3.807.55a2.832,2.832,0,0,1,1.013,1.65c.063.33.108.724.152,1.174a6.847,6.847,0,0,1,.009,1.284c-.063.33-.134.688-.242,1.082Z" transform="translate(-94.6 -180.3)"/></svg>