<svg xmlns="http://www.w3.org/2000/svg" xmlns:xlink="http://www.w3.org/1999/xlink" width="100" height="100" viewBox="0 0 100 100"><defs><style>.a{fill:#fff;}.b{stroke:rgba(0,0,0,0);stroke-miterlimit:10;fill:url(#a);}</style><linearGradient id="a" x1="0.3" y1="0.89" x2="0.7" y2="0.11" gradientUnits="objectBoundingBox"><stop offset="0" stop-color="#fea614"/><stop offset="1" stop-color="#ffd429"/></linearGradient></defs><g transform="translate(-255.5 -755.76)"><rect class="a" width="100" height="100" transform="translate(255.5 755.76)"/><path class="b" d="M106.081,74.436A36.441,36.441,0,0,0,79.422,63.772,37.339,37.339,0,0,0,52.43,74.436,33.854,33.854,0,0,0,42.6,98.763a36.255,36.255,0,0,0,4.5,17.329l-2.333,6.831a7.4,7.4,0,0,0,7,9.664,3.669,3.669,0,0,0,1.333-.167l10.331-1.833a38.159,38.159,0,0,0,15.662,3.166h.833a36.674,36.674,0,0,0,25.993-10.664,32.545,32.545,0,0,0,9.831-24.327,32.772,32.772,0,0,0-9.664-24.327ZM79.255,117.091A18.455,18.455,0,0,1,60.594,98.763a3.332,3.332,0,0,1,6.665,0,12,12,0,0,0,23.993,0,3.332,3.332,0,1,1,6.665,0,18.455,18.455,0,0,1-18.661,18.328Z" transform="translate(225.906 707.007)"/></g></svg>