<?xml version="1.0" standalone="no"?><!DOCTYPE svg PUBLIC "-//W3C//DTD SVG 1.1//EN" "http://www.w3.org/Graphics/SVG/1.1/DTD/svg11.dtd"><svg t="1729676397328" class="icon" viewBox="0 0 1024 1024" version="1.1" xmlns="http://www.w3.org/2000/svg" p-id="1694" xmlns:xlink="http://www.w3.org/1999/xlink" width="200" height="200"><path d="M512 14.8973037C238.59351703 14.8973037 14.8973037 238.59351703 14.8973037 512s223.69621333 497.1026963 497.1026963 497.1026963 497.1026963-223.69621333 497.1026963-497.1026963S785.40648297 14.8973037 512 14.8973037zM793.6915279 379.43928098l-331.40179753 331.40179754c-8.28504494 8.28504494-16.57008987 8.28504494-33.14017976 8.28504495s-24.85513482 0-33.14017975-8.28504495l-165.70089876-165.70089877c-16.57008987-16.57008987-16.57008987-41.42522469 0-57.99531457s41.42522469-16.57008987 57.99531457 0L429.14955061 619.70558419l298.26161778-298.26161777c16.57008987-16.57008987 41.42522469-16.57008987 57.99531458 0S801.97657283 362.86919111 793.6915279 379.43928098z" fill="#eb2c2a" p-id="1695"></path></svg>