<svg xmlns="http://www.w3.org/2000/svg" width="44" height="44" viewBox="0 0 44 44"><defs><style>.a{fill:#040000;}</style></defs><g transform="translate(-6.38 -7.975)"><path class="a" d="M245.9,244.747c1.039-1.8.485-3.179-1.386-4.492-2.148-1.589-4.227-2.7-5.751-.967,0,0-1.594,1.866-6.306-2.557-5.474-5.183-3.188-6.979-3.188-6.979,1.871-1.866.693-3.317-.9-5.459s-3.188-2.833-5.474-.967c-4.435,3.524,1.8,11.886,4.989,15.134,0,0,4.781,4.975,7.83,6.634l1.594.9c2.356,1.175,4.92,1.728,6.791.622a4.5,4.5,0,0,0,1.8-1.866Z" transform="translate(-205.671 -204.994)"/><path class="a" d="M28.38,51.975a22,22,0,1,1,22-22.035A21.994,21.994,0,0,1,28.38,51.975Zm0-42.619A20.584,20.584,0,1,0,49,29.941,20.667,20.667,0,0,0,28.38,9.357Z"/></g></svg>