<svg xmlns="http://www.w3.org/2000/svg" xmlns:xlink="http://www.w3.org/1999/xlink" width="120" height="120" viewBox="0 0 120 120"><defs><style>.a{opacity:0.9;fill:url(#a);}</style><linearGradient id="a" x1="0.035" y1="0.607" x2="0.977" y2="0.598" gradientUnits="objectBoundingBox"><stop offset="0" stop-color="#ff3981"/><stop offset="1" stop-color="#ff1e1a"/></linearGradient></defs><path class="a" d="M116.26,30.118a60,60,0,1,1-60,60,60.08,60.08,0,0,1,60-60ZM116.2,53.51a4.5,4.5,0,0,0-4.387,4.387V90.643a4.412,4.412,0,0,0,2.632,4.1l23.393,11.108a3.627,3.627,0,0,0,1.755.3,4.41,4.41,0,0,0,4.1-2.633,4.6,4.6,0,0,0-2.34-5.85L120.58,88.01V57.9a4.5,4.5,0,0,0-4.387-4.387Z" transform="translate(-56.26 -30.118)"/></svg>