<svg xmlns="http://www.w3.org/2000/svg" width="102.88" height="102.88" viewBox="0 0 102.88 102.88"><defs><style>.a{fill:none;stroke:rgba(0,0,0,0);stroke-width:2.88px;}.b{fill:#f86b6b;}.c{fill:#ffe67b;}.d{fill:#ffad41;}</style></defs><g transform="translate(-488.559 -1048.56)"><g transform="translate(-92.801 294.24)"><circle class="a" cx="50" cy="50" r="50" transform="translate(582.8 755.76)"/><g transform="translate(521.57 718.723)"><path class="b" d="M108.069,510.643,93.763,534.357a2.053,2.053,0,0,1-2.044.964,2.03,2.03,0,0,1-1.689-1.486l-2.279-8.722a.6.6,0,0,0-.287-.371.622.622,0,0,0-.47-.059l-9,2.46a2.061,2.061,0,0,1-2.168-.715,1.981,1.981,0,0,1-.134-2.245l14.272-23.658a2.06,2.06,0,0,1,2.757-.726l14.6,8.066a2.013,2.013,0,0,1,.972,1.233,1.98,1.98,0,0,1-.219,1.546Zm6.321,0L128.7,534.357a2.053,2.053,0,0,0,2.044.964,2.03,2.03,0,0,0,1.689-1.486l2.283-8.722a.605.605,0,0,1,.286-.369.623.623,0,0,1,.468-.061l9,2.46a2.061,2.061,0,0,0,2.168-.715,1.981,1.981,0,0,0,.134-2.245L132.5,500.524a2.06,2.06,0,0,0-2.757-.726l-14.6,8.07a2.013,2.013,0,0,0-.972,1.233,1.98,1.98,0,0,0,.219,1.546Z" transform="translate(0 -413.303)"/><path class="c" d="M130.141,78.921c0,16.416,13.939,29.724,31.135,29.724S192.41,95.338,192.41,78.921,178.471,49.2,161.276,49.2,130.141,62.505,130.141,78.921Z" transform="translate(-50.38 0)"/><path class="d" d="M234.917,174.079c-13.677,0-24.765-10.534-24.765-23.529s11.089-23.529,24.765-23.529,24.769,10.534,24.769,23.529S248.6,174.079,234.917,174.079Zm-.281-15.032a.632.632,0,0,1,.562,0l7.423,3.705a.631.631,0,0,0,.646-.054.6.6,0,0,0,.242-.587l-1.408-7.8a.6.6,0,0,1,.182-.545l5.958-5.513a.594.594,0,0,0,.16-.621.615.615,0,0,0-.5-.413l-8.261-1.141a.618.618,0,0,1-.463-.322l-3.708-7.136a.625.625,0,0,0-1.1,0l-3.7,7.136a.618.618,0,0,1-.467.322l-8.258,1.141a.615.615,0,0,0-.506.414.594.594,0,0,0,.164.624l5.958,5.51a.591.591,0,0,1,.182.545l-1.408,7.8a.6.6,0,0,0,.242.587.631.631,0,0,0,.646.054l7.419-3.705Z" transform="translate(-124.021 -71.629)"/></g></g></g></svg>